<?xml version="1.0" encoding="UTF-8"?>
<!-- Svg Vector Icons : http://www.onlinewebfonts.com/icon -->
<!DOCTYPE svg PUBLIC "-//W3C//DTD SVG 1.1//EN" "http://www.w3.org/Graphics/SVG/1.1/DTD/svg11.dtd">
<svg version="1.1" xmlns="http://www.w3.org/2000/svg" xmlns:xlink="http://www.w3.org/1999/xlink" x="0px" y="0px" viewBox="0 0 256 256" enable-background="new 0 0 256 256" xml:space="preserve">
<metadata> Svg Vector Icons : http://www.onlinewebfonts.com/icon </metadata>
<g><g><g><path fill="#000000" d="M17,24.1c-3.7,1.9-7,6.9-7,10.7s3.3,8.8,7,10.6l3.4,1.8H128h107.6l3.4-1.8c3.7-1.9,7-6.8,7-10.6s-3.3-8.8-7-10.7l-3.4-1.7H128H20.4L17,24.1z"/><path fill="#000000" d="M17,117.3c-3.7,1.9-7,6.9-7,10.7s3.3,8.8,7,10.6l3.4,1.8H128h107.6l3.4-1.8c3.7-1.9,7-6.8,7-10.6s-3.3-8.8-7-10.7l-3.4-1.7H128H20.4L17,117.3z"/><path fill="#000000" d="M17,210.4c-3.7,1.9-7,6.9-7,10.7s3.3,8.8,7,10.6l3.4,1.8H128h107.6l3.4-1.7c3.7-1.9,7-6.9,7-10.7s-3.3-8.8-7-10.7l-3.4-1.7H128H20.4L17,210.4z"/></g></g></g>
</svg>