<?xml version="1.0" encoding="UTF-8"?>
<!-- Svg Vector Icons : http://www.onlinewebfonts.com/icon -->
<!DOCTYPE svg PUBLIC "-//W3C//DTD SVG 1.1//EN" "http://www.w3.org/Graphics/SVG/1.1/DTD/svg11.dtd">
<svg version="1.1" xmlns="http://www.w3.org/2000/svg" xmlns:xlink="http://www.w3.org/1999/xlink" x="0px" y="0px" viewBox="0 0 256 256" enable-background="new 0 0 256 256" xml:space="preserve">
<metadata> Svg Vector Icons : http://www.onlinewebfonts.com/icon </metadata>
<g><g><g><path fill="#000000" d="M118.4,10.5c-2.2,0.2-6.3,1-9.2,1.6c-32.6,7.3-58.1,32-66.2,64c-6.5,25.5-0.8,51.4,18.9,85.5c13.7,23.9,36.6,53.6,60.9,78.9l5.2,5.4l5.8-5.9c17.7-18.1,36.7-41.6,50.9-63c20.1-30.3,30.2-55.5,31-77.2c0.8-23.6-7.7-45.5-24.3-62.8C172.3,17.3,145.7,7.7,118.4,10.5z M139.8,53.8c16,4.4,28.3,17.1,32.4,33.6c1.1,4.3,1.1,15.7,0,20c-4.2,16.6-16,28.9-32.4,33.7c-3.2,0.9-4.7,1.1-11.7,1.1s-8.5-0.1-11.7-1.1c-16.1-4.7-27.8-16.5-32.2-32.6c-1.3-4.8-1.4-16.3-0.2-21c4.1-16.6,16.7-29.6,32.4-33.5c5.4-1.4,5.4-1.4,12.9-1.2C134.5,52.7,136.9,53,139.8,53.8z"/></g></g></g>
</svg>